# xmcd
#
# Track frame offsets: 
#        150
#        22227
#        48180
#        63115
#        87981
#        104755
#        117937
#        175048
#        188590
#        207710
#        229685
#        252070
#        265096
#        281542
#        309137
#        323484
#        345402
#
# Disc length: 4733 seconds
#
# Revision: 0
# Processed by: cddbd v1.5.2PL0 Copyright (c) Steve Scherf et al.
# Submitted via: ExactAudioCopy v1.0b1
#
DISCID=e3127b11
DTITLE=Various Artist - BLUES #1
DYEAR=1900
DGENRE=Blues
TTITLE0=01. Johnny Winter - T-Bone Shuffle (featuring Sonny Landrith)
TTITLE1=02. Peter Green - Gotta See Her Tonight
TTITLE2=03. Livin' Blues - Midnight Blues
TTITLE3=04. ZZ Top - Goin' So Good
TTITLE4=05. Little Charlie And The Nightcats - So Good
TTITLE5=06. The Mick Fleetwood Band - Bitter End
TTITLE6=07. Brian May and Friends (with E. Van Halen) - Blues Breaker
TTITLE7=08. David Lee Roth - Made Up My Mind
TTITLE8=09. Johnny Lang - Good Morning Little School Girl
TTITLE9=10. Koko Taylor - I'd Rather Go Blind
TTITLE10=11. Albert Collins, Robert Cray, Johnny Copeland - T-Bone
TTITLE11=12. Robin Trower - Inside Out
TTITLE12=13. The Reverend Peyton's Big Damn Band - Something For Nothi
TTITLE12=ng
TTITLE13=14. James Solberg - L. A. Blues
TTITLE14=15. John Lee Hooker - Kiddio
TTITLE15=16. The Climax Blues Band  - Mighty Fire
TTITLE16=17. Buddy Guy - Slop Around
EXTD=
EXTT0=
EXTT1=
EXTT2=
EXTT3=
EXTT4=
EXTT5=
EXTT6=
EXTT7=
EXTT8=
EXTT9=
EXTT10=
EXTT11=
EXTT12=
EXTT13=
EXTT14=
EXTT15=
EXTT16=
PLAYORDER=
